<svg width="24" height="24" viewBox="0 0 24 24" fill="none" xmlns="http://www.w3.org/2000/svg">
<g opacity="0.6">
<path fill-rule="evenodd" clip-rule="evenodd" d="M19.3015 20.7063C19.6903 21.0985 20.3207 21.0985 20.7094 20.7063C21.0982 20.314 21.0982 19.678 20.7094 19.2858L13.4084 11.9193L20.549 4.71473C20.9377 4.32247 20.9377 3.68649 20.549 3.29422C20.1602 2.90196 19.5299 2.90196 19.1411 3.29422L12.0005 10.4988L4.85994 3.2942C4.47117 2.90193 3.84083 2.90193 3.45205 3.2942C3.06327 3.68646 3.06328 4.32244 3.45205 4.71471L10.5926 11.9193L3.29158 19.2858C2.90281 19.678 2.90281 20.314 3.29158 20.7063C3.68036 21.0986 4.3107 21.0986 4.69947 20.7063L12.0005 13.3398L19.3015 20.7063Z" fill="white"/>
</g>
</svg>
